<svg width="180" height="158" viewBox="0 0 180 158" fill="none" xmlns="http://www.w3.org/2000/svg">
<path d="M104.212 8.11486C102.717 5.63901 100.605 3.59081 98.082 2.16898C95.5589 0.747161 92.7102 0 89.8124 0C86.9145 0 84.0658 0.747161 81.5428 2.16898C79.0197 3.59081 76.908 5.63901 75.4124 8.11486L51.7244 48.5844C69.821 57.5965 85.2396 71.1735 96.4491 87.9674C107.659 104.761 114.269 124.188 115.624 144.318H98.9924C97.6397 127.063 91.7933 110.459 82.0317 96.1493C72.27 81.8398 58.9316 70.321 43.3364 62.7326L21.4124 100.545C30.1796 104.467 37.8175 110.525 43.6238 118.161C49.4301 125.797 53.2184 134.767 54.6404 144.246H16.4444C15.9914 144.214 15.5535 144.07 15.1702 143.827C14.7869 143.584 14.4702 143.25 14.2488 142.855C14.0273 142.459 13.9081 142.015 13.9017 141.562C13.8953 141.109 14.0021 140.662 14.2124 140.26L24.7964 122.306C21.2106 119.322 17.1124 117.01 12.7004 115.483L2.22438 133.438C1.13378 135.304 0.425766 137.367 0.141475 139.508C-0.142816 141.649 0.00228251 143.826 0.568341 145.91C1.1344 147.995 2.11013 149.947 3.43886 151.652C4.76758 153.358 6.42281 154.783 8.30838 155.845C10.7927 157.241 13.5929 157.983 16.4444 157.999H68.7524C69.7239 146.042 67.5831 134.037 62.5375 123.147C57.4918 112.257 49.7123 102.851 39.9524 95.8408L48.2684 81.4771C60.5855 89.9155 70.4839 101.412 76.9865 114.831C83.4891 128.251 86.3712 143.13 85.3484 157.999H129.664C130.696 135.474 125.783 113.072 115.417 93.0335C105.05 72.995 89.5922 56.0212 70.5884 43.8085L87.4004 15.0812C87.775 14.4551 88.3824 14.002 89.0903 13.8204C89.7983 13.6388 90.5494 13.7435 91.1804 14.1117C93.0884 15.153 164.224 138.968 165.556 140.404C165.791 140.824 165.91 141.298 165.902 141.778C165.895 142.259 165.76 142.729 165.511 143.14C165.263 143.552 164.91 143.891 164.488 144.123C164.066 144.355 163.59 144.472 163.108 144.462H145.972C146.188 149.034 146.188 153.595 145.972 158.143H163.18C165.365 158.157 167.532 157.739 169.554 156.913C171.576 156.086 173.413 154.868 174.96 153.328C176.507 151.789 177.732 149.959 178.565 147.944C179.398 145.928 179.822 143.769 179.812 141.589C179.815 138.71 179.044 135.883 177.58 133.402L104.212 8.11486Z" fill="#362D59"/>
</svg>
