<svg width="188" height="163" viewBox="0 0 188 163" fill="none" xmlns="http://www.w3.org/2000/svg">
<g clip-path="url(#clip0_6_191)">
<path d="M34.4071 79.3684C39.6463 79.1859 44.2691 78.0441 48.2754 75.943C52.2817 73.8419 55.3486 70.9198 57.4761 67.1767C59.6035 63.4337 60.5834 59.1675 60.4157 54.3783C60.2403 49.3713 58.9331 45.3301 56.4941 42.2547C54.055 39.1792 51.1514 36.8828 47.7834 35.3654C44.4153 33.848 40.2656 32.376 35.3344 30.9493C30.5486 29.5176 27.1148 28.2023 25.0328 27.0034C22.9509 25.8045 21.8705 24.0803 21.7918 21.8308C21.7232 19.8715 22.4709 18.338 24.0349 17.23C25.5989 16.1221 27.7271 15.5212 30.4195 15.4275C36.9685 15.1994 42.6342 17.8356 47.4168 23.336L56.4492 12.8864C52.5958 8.95199 48.5459 6.16875 44.2996 4.53663C40.0532 2.90451 35.4924 2.17333 30.617 2.34311C22.9765 2.60918 16.8385 4.69374 12.2032 8.59677C7.56783 12.4998 5.36704 17.7893 5.60082 24.4652C5.75583 28.8916 6.938 32.4831 9.14734 35.2396C11.3567 37.9961 13.9973 40.0656 17.0692 41.448C20.1411 42.8304 23.9946 44.1674 28.6298 45.4591C32.3088 46.4934 35.1822 47.4105 37.2502 48.2103C39.3182 49.0101 40.9935 50.0416 42.2763 51.3047C43.5591 52.5677 44.236 54.2152 44.3072 56.247C44.3987 58.8593 43.5082 60.9972 41.6358 62.6608C39.7634 64.3244 37.1899 65.2132 33.9154 65.3272C30.2043 65.4564 26.6903 64.4527 23.3734 62.3159C20.0565 60.1792 17.0835 56.9407 14.4545 52.6004L2.98261 62.0452C6.61355 67.9489 11.1396 72.3685 16.5609 75.3037C21.9821 78.239 27.9309 79.5939 34.4071 79.3684ZM65.0119 96.8291C71.3427 96.6086 76.3652 95.9615 80.0797 94.8876C83.7942 93.8138 86.8245 91.9283 89.1707 89.2311C91.5169 86.5339 93.5834 82.6113 95.3702 77.4634L114.992 19.8929L97.8557 20.4897L87.8611 59.6343L87.097 59.6609L74.4976 21.3031L57.4702 21.8961L79.7833 75.4997C78.8535 78.0749 77.2321 80.1475 74.9193 81.7174C72.6065 83.2873 69.1579 84.1521 64.5736 84.3117L65.0119 96.8291ZM136.968 74.925L135.813 41.9445C135.699 38.6791 136.662 36.0119 138.702 33.9429C140.743 31.8739 143.436 30.7811 146.784 30.6646C149.767 30.5607 152.124 31.296 153.855 32.8704C155.586 34.4448 156.508 36.8647 156.623 40.1301L157.816 74.199L173.752 73.6441L172.46 36.7451C172.251 30.7949 170.318 26.0489 166.661 22.5073C163.003 18.9657 158.264 17.2963 152.442 17.499C148.586 17.6333 145.228 18.4949 142.37 20.0838C139.511 21.6728 137.25 23.695 135.588 26.1504L135.042 26.1694L134.798 19.2032L118.971 19.7544L120.923 75.4838L136.968 74.925ZM40.7499 160.633L40.3154 148.224L33.6572 148.456C31.9108 148.517 30.6403 148.125 29.8458 147.281C29.0513 146.437 28.6184 144.999 28.5473 142.967L27.5906 115.647L39.1605 115.244L38.7984 104.903L27.2284 105.306L26.55 85.9316L10.6141 86.4866L11.2925 105.861L3.54287 106.131L3.90497 116.472L11.6546 116.202L12.7486 147.441C12.9061 151.94 14.1742 155.383 16.5527 157.77C18.9313 160.157 22.2308 161.278 26.4512 161.131L40.7499 160.633ZM63.8722 161.026C66.8557 160.922 69.9624 160.179 73.1925 158.795C76.4225 157.411 79.2326 155.478 81.6228 152.998L81.8401 159.202L95.9205 158.712L94.5902 120.724C94.3691 114.411 91.9118 109.774 87.2182 106.814C82.5247 103.853 76.4668 102.502 69.0446 102.76C63.3688 102.958 58.618 104.086 54.7923 106.145C50.9666 108.203 47.7711 111.093 45.2058 114.815L55.2923 121.984C57.1707 119.448 59.2004 117.597 61.3817 116.432C63.563 115.266 66.2909 114.626 69.5654 114.512C73.2765 114.383 75.9898 114.888 77.7054 116.027C79.4209 117.166 80.3634 119.113 80.5327 121.868C78.9471 122.359 77.7566 122.691 76.9612 122.864C70.6162 124.756 66.0036 126.188 63.1234 127.16C60.2433 128.132 57.5865 129.242 55.153 130.489C48.2894 134.215 44.9758 139.453 45.2121 146.201C45.3798 150.99 47.1492 154.707 50.5202 157.35C53.8913 159.993 58.342 161.219 63.8722 161.026ZM67.8228 149.01C66.1491 149.068 64.7507 148.663 63.6274 147.794C62.5042 146.925 61.9133 145.656 61.8549 143.987C61.7634 141.375 63.3282 139.249 66.5494 137.612C67.9793 136.835 70.044 135.982 72.7436 135.053C75.4431 134.123 78.1614 133.211 80.8986 132.317L81.2417 142.113C79.4962 144.281 77.4601 145.95 75.1332 147.121C72.8064 148.292 70.3696 148.921 67.8228 149.01ZM119.001 157.908L129.505 139.56L141.268 157.132L160.696 156.456L140.175 129.054L158.745 100.726L139.316 101.403L128.796 119.315L117.049 102.178L97.6206 102.855L117.908 129.829L99.5721 158.584L119.001 157.908ZM184.868 155.614L184.266 138.416L164.946 139.089L165.549 156.287L184.868 155.614Z" fill="#FFAE00"/>
</g>
<defs>
<clipPath id="clip0_6_191">
<rect width="188" height="163" fill="white"/>
</clipPath>
</defs>
</svg>
